<svg xmlns="http://www.w3.org/2000/svg" height="62pt" version="1.1" viewBox="0 -1 62.373318 62" width="62pt">
<g id="surface1">
<path d="M 60.960938 10.46875 C 56.636719 11.09375 54.210938 9.035156 50.367188 5.664062 C 49.117188 4.527344 47.613281 3.246094 45.90625 1.925781 C 44.511719 0.808594 42.78125 0.195312 41 0.1875 C 36.683594 0.1875 32.933594 3.78125 31.203125 5.75 C 29.476562 3.78125 25.726562 0.1875 21.40625 0.1875 C 19.621094 0.195312 17.890625 0.808594 16.5 1.925781 C 14.792969 3.230469 13.335938 4.519531 12.042969 5.664062 C 8.195312 9.035156 5.816406 11.09375 1.449219 10.46875 C 0.863281 10.371094 0.285156 10.707031 0.0820312 11.261719 C -0.132812 11.828125 0.0859375 12.460938 0.601562 12.769531 C 3.628906 14.699219 7.074219 17.363281 7.375 18.136719 C 7.375 18.300781 7.3125 18.882812 7.25 19.382812 C 5.058594 37.667969 12.925781 51.363281 30.65625 60.078125 C 31 60.25 31.40625 60.25 31.75 60.078125 C 49.476562 51.363281 57.347656 37.667969 55.171875 19.382812 C 55.171875 18.859375 55.035156 18.273438 55.019531 18.222656 C 55.304688 17.425781 58.421875 14.914062 61.800781 12.746094 C 62.382812 12.375 62.546875 11.605469 62.171875 11.023438 C 61.910156 10.621094 61.4375 10.398438 60.960938 10.46875 Z M 52.59375 17.75 C 52.535156 18.40625 52.5625 19.070312 52.691406 19.71875 C 54.722656 36.652344 47.5 49.382812 31.203125 57.589844 C 14.90625 49.382812 7.6875 36.652344 9.714844 19.679688 C 9.835938 19.042969 9.871094 18.398438 9.8125 17.75 C 9.554688 16.417969 7.402344 14.527344 5.167969 12.894531 C 8.386719 12.222656 10.789062 10.117188 13.6875 7.578125 C 14.929688 6.472656 16.375 5.226562 18.019531 3.957031 C 18.972656 3.167969 20.167969 2.726562 21.40625 2.710938 C 25.953125 2.710938 30.117188 8.4375 30.195312 8.488281 C 30.421875 8.828125 30.796875 9.027344 31.203125 9.035156 C 31.601562 9.035156 31.976562 8.847656 32.214844 8.523438 C 33.367188 6.921875 37.195312 2.75 41 2.75 C 42.238281 2.765625 43.4375 3.203125 44.386719 3.992188 C 46.027344 5.238281 47.460938 6.484375 48.71875 7.617188 C 51.621094 10.109375 54.023438 12.273438 57.234375 12.933594 C 55.003906 14.488281 52.855469 16.371094 52.59375 17.75 Z M 52.59375 17.75 " style=" stroke:none;fill-rule:nonzero;fill:rgb(0%,0%,0%);fill-opacity:1;" />
<path d="M 40.949219 18.460938 C 39.84375 17.886719 38.828125 17.144531 37.9375 16.265625 C 36.210938 14.394531 33.75 13.371094 31.203125 13.46875 C 28.652344 13.367188 26.1875 14.390625 24.457031 16.265625 C 23.5625 17.144531 22.550781 17.886719 21.445312 18.460938 C 20.722656 18.773438 20.328125 19.550781 20.496094 20.316406 C 21.019531 22.558594 27.355469 24.234375 31.191406 24.234375 C 35.027344 24.234375 41.359375 22.542969 41.886719 20.316406 C 42.058594 19.550781 41.667969 18.773438 40.949219 18.460938 Z M 31.203125 21.757812 C 28.597656 21.726562 26.03125 21.148438 23.65625 20.066406 C 24.546875 19.488281 25.382812 18.832031 26.148438 18.097656 C 27.410156 16.640625 29.273438 15.847656 31.203125 15.957031 C 33.132812 15.847656 35.007812 16.648438 36.269531 18.109375 C 37.039062 18.84375 37.871094 19.503906 38.757812 20.078125 C 36.386719 21.160156 33.8125 21.730469 31.203125 21.757812 Z M 31.203125 21.757812 " style=" stroke:none;fill-rule:nonzero;fill:rgb(0%,0%,0%);fill-opacity:1;" />
<path d="M 14.707031 27.261719 C 14.730469 26.574219 14.195312 26 13.507812 25.972656 C 12.820312 25.949219 12.238281 26.484375 12.21875 27.171875 C 12.21875 27.699219 11.84375 39.910156 20.496094 46.085938 C 21.054688 46.484375 21.835938 46.351562 22.234375 45.792969 C 22.632812 45.230469 22.503906 44.457031 21.941406 44.058594 C 14.398438 38.667969 14.707031 27.371094 14.707031 27.261719 Z M 14.707031 27.261719 " style=" stroke:none;fill-rule:nonzero;fill:rgb(0%,0%,0%);fill-opacity:1;" />
</g>
</svg>