<svg height="511pt" viewBox="-2 0 511 511.81707" width="511pt" xmlns="http://www.w3.org/2000/svg"><path d="m31.722656 255.003906c18.027344 5.382813 37.28125 5.03125 55.105469-.996094 28.121094-8.898437 49.679687-28.507812 54.910156-49.957031 3.625-12.933593-.464843-26.800781-10.523437-35.703125-16.292969-15.121094-46.296875-19.199218-74.714844-10.222656-8.816406 2.964844-17.136719 7.234375-24.683594 12.671875-18.992187 13.394531-36.792968 35.503906-29.890625 57.328125 4.964844 13.273438 16.082031 23.304688 29.796875 26.878906zm30.289063-79.453125c12.675781-4.214843 26.242187-5 39.316406-2.265625 9.800781 1.246094 18.3125 7.351563 22.628906 16.238282 4.570313 14.40625-12.71875 37.585937-42.652343 47.058593-7.917969 2.53125-16.171876 3.839844-24.484376 3.882813-19.199218 0-34.210937-7.550782-37.484374-17.855469-4.527344-14.390625 12.742187-37.585937 42.675781-47.058594zm0 0"/><path d="m262.535156 196.945312c6.863282-7.160156 6.765625-18.488281-.21875-25.527343-6.984375-7.042969-18.3125-7.234375-25.527344-.429688l-.09375.074219c-7.140624 7.144531-7.140624 18.722656 0 25.867188 7.144532 7.140624 18.722657 7.140624 25.867188 0zm0 0"/><path d="m161.175781 195.089844c17.617188-3.085938 35.59375-3.523438 53.339844-1.308594-3.800781-12.675781-.246094-26.414062 9.226563-35.65625l.117187-.089844c.3125-.320312.722656-.722656 1.042969-1.0625-24.140625.105469-48.160156 3.433594-71.421875 9.894532 5.277343 8.4375 7.953125 18.246093 7.695312 28.195312zm0 0"/><path d="m287.769531 184.714844c3.027344 5.546875 4.621094 11.761718 4.636719 18.082031 28.296875-8.914063 69.347656-21.941406 121.234375-38.351563 60.90625-19.285156 84.285156-43.695312 93.253906-58.964843l-205.355469 65.683593zm0 0"/><path d="m224.519531 290.980469c34.027344-38.582031 45.265625-63.1875 48.457031-77.320313.164063-.75.226563-1.371094.355469-2.074218-11.667969 10.320312-28.671875 11.917968-42.058593 3.949218-5.746094 20.183594-15.375 39.050782-28.339844 55.550782 5.039062 2.503906 9.652344 5.792968 13.660156 9.746093 3.046875 3.042969 5.710938 6.453125 7.925781 10.148438zm0 0"/><path d="m281.011719 165.550781 9.964843-9.964843 158.273438-155.585938c-18.925781 1.050781-53.359375 10.824219-98.652344 57.089844-30.921875 31.640625-56.859375 57.316406-77.714844 77.941406-5.054687 5-9.609374 9.515625-13.921874 13.804688 9.355468 2.253906 17.34375 8.3125 22.03125 16.714843zm0 0"/><path d="m160.910156 402.769531c.445313-1.1875 1.136719-2.269531 2.03125-3.171875.652344-.652344 1.394532-1.210937 2.203125-1.65625 8.261719-4.519531 15.820313-10.21875 22.4375-16.921875 21.027344-21.027343 31.269531-49.582031 25.378907-70.949219-3.230469-13.015624-13.605469-23.046874-26.722657-25.835937-21.578125-5.285156-48.914062 4.816406-69.777343 25.671875-13.574219 13.035156-22.757813 29.96875-26.277344 48.457031-3.15625 13.820313.617187 28.3125 10.109375 38.839844 5.734375 5.578125 13.105469 9.164063 21.03125 10.238281h.0625c.492187.140625.96875.324219 1.425781.550782.671875.175781 1.320312.421874 1.9375.738281.417969.328125.808594.695312 1.164062 1.089843.507813.386719.96875.828126 1.378907 1.316407.277343.476562.507812.980469.695312 1.5.316407.53125.574219 1.09375.769531 1.679687.0625.542969.082032 1.085938.0625 1.628906.097657.648438.121094 1.308594.074219 1.964844v.074219c-2.363281 15.601563-3.449219 31.371094-3.246093 47.148437-1.117188 19.867188 10.808593 38.152344 29.4375 45.140626 7.929687 2.648437 12.957031 1.296874 13.714843.292968.25-.332031.53125-3.660156-4.113281-10.386718-22.453125-32.695313-12.03125-74.972657-3.820312-97.234376-.019532-.09375.027343-.128906.042968-.175781zm-20.113281-14.527343c-3.714844.96875-7.535156 1.476562-11.375 1.507812-5.902344.367188-11.714844-1.601562-16.179687-5.484375-5.894532-7.929687-7.390626-18.296875-3.976563-27.566406 7.695313-25.964844 28.015625-46.265625 53.988281-53.941407 9.265625-3.433593 19.644532-1.933593 27.5625 3.976563 5.894532 7.925781 7.390625 18.289063 3.980469 27.554687-3.59375 12.859376-10.535156 24.53125-20.117187 33.828126-9.3125 9.597656-21.007813 16.542968-33.890626 20.125zm0 0"/></svg>